<svg width="30" height="30" viewBox="0 0 30 30" fill="none" xmlns="http://www.w3.org/2000/svg">
<g id="material-symbols:shopping-bag-outline">
<path id="Vector" d="M7.5 27.5C6.8125 27.5 6.22417 27.2554 5.735 26.7663C5.24583 26.2771 5.00083 25.6883 5 25V10C5 9.3125 5.245 8.72417 5.735 8.235C6.225 7.74583 6.81333 7.50083 7.5 7.5H10C10 6.125 10.4896 4.94792 11.4688 3.96875C12.4479 2.98958 13.625 2.5 15 2.5C16.375 2.5 17.5521 2.98958 18.5312 3.96875C19.5104 4.94792 20 6.125 20 7.5H22.5C23.1875 7.5 23.7763 7.745 24.2663 8.235C24.7563 8.725 25.0008 9.31333 25 10V25C25 25.6875 24.7554 26.2763 24.2663 26.7663C23.7771 27.2563 23.1883 27.5008 22.5 27.5H7.5ZM7.5 25H22.5V10H20V12.5C20 12.8542 19.88 13.1513 19.64 13.3913C19.4 13.6313 19.1033 13.7508 18.75 13.75C18.3967 13.7492 18.1 13.6292 17.86 13.39C17.62 13.1508 17.5 12.8542 17.5 12.5V10H12.5V12.5C12.5 12.8542 12.38 13.1513 12.14 13.3913C11.9 13.6313 11.6033 13.7508 11.25 13.75C10.8967 13.7492 10.6 13.6292 10.36 13.39C10.12 13.1508 10 12.8542 10 12.5V10H7.5V25ZM12.5 7.5H17.5C17.5 6.8125 17.2554 6.22417 16.7663 5.735C16.2771 5.24583 15.6883 5.00083 15 5C14.3117 4.99917 13.7233 5.24417 13.235 5.735C12.7467 6.22583 12.5017 6.81417 12.5 7.5Z" fill="#F2F2F2"/>
</g>
</svg>
