<svg width="57" height="57" viewBox="0 0 57 57" fill="none" xmlns="http://www.w3.org/2000/svg">
<g id="zondicons:close-solid">
<rect x="2" y="2" width="54.2205" height="54.2205" rx="27.1103" fill="white"/>
<path id="Vector" d="M9.94344 48.2773C7.35413 45.7765 5.28881 42.785 3.86799 39.4774C2.44717 36.1699 1.6993 32.6125 1.66802 29.0128C1.63674 25.4131 2.32267 21.8432 3.6858 18.5115C5.04893 15.1797 7.06195 12.1528 9.60741 9.60734C12.1529 7.06189 15.1798 5.04887 18.5115 3.68574C21.8433 2.32261 25.4131 1.63667 29.0128 1.66795C32.6125 1.69924 36.1699 2.44711 39.4775 3.86793C42.785 5.28875 45.7765 7.35407 48.2774 9.94338C53.2157 15.0564 55.9483 21.9045 55.8865 29.0128C55.8247 36.121 52.9736 42.9206 47.9471 47.9471C42.9207 52.9735 36.1211 55.8247 29.0128 55.8864C21.9046 55.9482 15.0565 53.2156 9.94344 48.2773ZM32.9058 29.1103L40.578 21.4381L36.7555 17.6156L29.1104 25.2878L21.4382 17.6156L17.6156 21.4381L25.2878 29.1103L17.6156 36.7825L21.4382 40.6051L29.1104 32.9329L36.7826 40.6051L40.6051 36.7825L32.9329 29.1103H32.9058Z" fill="#842E3D" stroke="#F2F2F2" stroke-width="1.35551"/>
</g>
</svg>
